<?xml version="1.0" encoding="utf-8"?>
<!-- Generator: Adobe Illustrator 21.0.2, SVG Export Plug-In . SVG Version: 6.00 Build 0)  -->
<svg version="1.1" id="Layer_2" xmlns="http://www.w3.org/2000/svg" xmlns:xlink="http://www.w3.org/1999/xlink" x="0px" y="0px"
	 viewBox="0 0 1024 768" style="enable-background:new 0 0 1024 768;" xml:space="preserve">
<style type="text/css">
	.st0{fill:#F2F2F2;stroke:#000000;stroke-width:0.5;stroke-linecap:square;stroke-miterlimit:10;}
	.st1{fill:#B3B3B3;stroke:#000000;stroke-width:0.5;stroke-linecap:square;stroke-miterlimit:10;}
	.st2{display:none;}
	.st3{display:inline;fill:#FFFF99;stroke:#000000;stroke-width:0.5;stroke-linecap:square;stroke-miterlimit:10;}
	.st4{fill:#FFFFFF;stroke:#000000;stroke-width:0.5;stroke-linecap:square;stroke-miterlimit:10;}
	.st5{fill:#E0A0E0;}
	.st6{fill:#FFCCCC;stroke:#808080;stroke-width:0.5;stroke-linecap:round;stroke-linejoin:round;stroke-miterlimit:10;}
	.st7{fill:#FFCCCC;}
	.st8{fill:#6666FF;}
</style>
<polygon id="Floor" class="st0" points="838.5,516.5 838.5,507.5 489.5,507.5 489.5,165.5 489.5,139.5 489.5,127.5 489.5,22.5 
	466.5,22.5 466.5,127.5 367.5,127.5 367.5,44.5 367.5,22.5 355.5,22.5 31.5,22.5 0.5,22.5 0.5,44.5 0.5,767.5 31.5,767.5 
	977.5,767.5 977.5,738.5 1023.5,521.5 1023.5,516.5 "/>
<g id="Walls">
	<g>
		<polygon class="st0" points="31.5,222.5 356.5,222.5 356.5,313.5 362.5,313.5 362.5,222.5 362.5,216.5 303.5,216.5 303.5,212.5 
			297.5,212.5 297.5,216.5 31.5,216.5 31.5,202.5 0.5,202.5 0.5,320.5 31.5,320.5 		"/>
	</g>
	<g>
		<polygon class="st0" points="31.5,44.5 297.5,44.5 297.5,143.5 303.5,143.5 303.5,139.5 305.5,139.5 305.5,133.5 303.5,133.5 
			303.5,44.5 355.5,44.5 355.5,127.5 355.5,133.5 353.5,133.5 353.5,139.5 355.5,139.5 367.5,139.5 379.5,139.5 379.5,127.5 
			367.5,127.5 367.5,44.5 367.5,22.5 355.5,22.5 31.5,22.5 0.5,22.5 0.5,44.5 0.5,112.5 31.5,112.5 		"/>
	</g>
	<g>
		<polygon class="st0" points="31.5,516.5 283.5,516.5 283.5,519.5 288.5,519.5 288.5,516.5 362.5,516.5 362.5,510.5 362.5,405.5 
			356.5,405.5 356.5,510.5 31.5,510.5 31.5,457.5 0.5,457.5 0.5,581.5 31.5,581.5 		"/>
	</g>
	<g>
		<path class="st0" d="M971.9,737.3l-0.3,1.2H852.5v-54h-29v54h-334v-153h-23v2h-54v6h54v145h-109v-145h5v-6h-15v6h5v120h-64v-120
			h10v-6h-10v-2h-5v2v6v145h-252v-53h-31v82h31h946v-29L971.9,737.3z M352.5,738.5h-64v-21h64V738.5z"/>
	</g>
	<g>
		<polygon class="st0" points="838.5,516.5 838.5,507.5 489.5,507.5 489.5,165.5 489.5,139.5 489.5,127.5 489.5,22.5 466.5,22.5 
			466.5,127.5 456.5,127.5 456.5,139.5 466.5,139.5 466.5,521.5 489.5,521.5 489.5,519.5 823.5,519.5 823.5,572.5 852.5,572.5 
			852.5,548.5 950.5,548.5 950.5,521.5 1017.3,521.5 1017.3,521.4 1023.3,522.7 1023.5,521.5 1023.5,516.5 		"/>
	</g>
</g>
<rect x="288.5" y="717.5" class="st1" width="64" height="21"/>
<g id="Rooms_Dark">
	<polygon class="st1" points="466.5,139.5 466.5,587.5 288.5,587.5 288.5,516.5 362.5,516.5 362.5,510.5 362.5,222.5 362.5,216.5 
		303.5,216.5 303.5,139.5 355.5,139.5 367.5,139.5 	"/>
	<rect x="288.5" y="593.5" class="st1" width="64" height="120"/>
	<rect x="31.5" y="222.5" class="st1" width="325" height="288"/>
	<polygon class="st1" points="355.5,44.5 355.5,127.5 355.5,133.5 303.5,133.5 303.5,44.5 	"/>
	<rect x="31.5" y="44.5" class="st1" width="266" height="172"/>
	<polygon class="st1" points="31.5,738.5 31.5,516.5 283.5,516.5 283.5,587.5 283.5,593.5 283.5,738.5 	"/>
	<rect x="357.5" y="593.5" class="st1" width="109" height="145"/>
	<rect x="489.5" y="519.5" class="st1" width="334" height="219"/>
	<polygon class="st1" points="971.6,738.5 852.5,738.5 852.5,548.5 950.5,548.5 950.5,521.5 1017.5,521.5 	"/>
</g>
<g id="Rooms_Light" class="st2">
	<polygon class="st3" points="466.5,139.5 466.5,587.5 288.5,587.5 288.5,516.5 362.5,516.5 362.5,510.5 362.5,222.5 362.5,216.5 
		303.5,216.5 303.5,139.5 355.5,139.5 367.5,139.5 	"/>
	<rect x="288.5" y="593.5" class="st3" width="64" height="120"/>
	<rect x="31.5" y="222.5" class="st3" width="325" height="288"/>
	<polygon class="st3" points="355.5,44.5 355.5,127.5 355.5,133.5 303.5,133.5 303.5,44.5 	"/>
	<rect x="31.5" y="44.5" class="st3" width="266" height="172"/>
	<polygon class="st3" points="31.5,738.5 31.5,516.5 283.5,516.5 283.5,587.5 283.5,593.5 283.5,738.5 	"/>
	<rect x="357.5" y="593.5" class="st3" width="109" height="145"/>
	<rect x="489.5" y="519.5" class="st3" width="334" height="219"/>
	<polygon class="st3" points="971.6,738.5 852.5,738.5 852.5,548.5 950.5,548.5 950.5,521.5 1017.5,521.5 	"/>
</g>
<g id="Doors-n-Windows">
	<rect x="0.5" y="112.5" class="st4" width="31" height="90"/>
	<rect x="0.5" y="320.5" class="st4" width="31" height="137"/>
	<rect x="0.5" y="581.5" class="st4" width="31" height="104"/>
	<rect x="283.5" y="519.5" class="st4" width="5" height="66"/>
	<rect x="298.5" y="587.5" class="st4" width="49" height="6"/>
	<rect x="362.5" y="587.5" class="st4" width="50" height="6"/>
	<rect x="466.5" y="521.5" class="st4" width="23" height="64"/>
	<rect x="823.5" y="572.5" class="st4" width="29" height="68"/>
	<rect x="823.5" y="640.5" class="st4" width="29" height="44"/>
	<rect x="356.5" y="313.5" class="st4" width="6" height="46"/>
	<rect x="356.5" y="359.5" class="st4" width="6" height="46"/>
	<rect x="297.5" y="143.5" class="st4" width="6" height="69"/>
	<rect x="305.5" y="133.5" class="st4" width="48" height="6"/>
	<rect x="379.5" y="127.5" class="st4" width="77" height="12"/>
	
		<rect x="994.5" y="519.7" transform="matrix(0.9784 0.2067 -0.2067 0.9784 151.7453 -192.5676)" class="st4" width="6.1" height="220.6"/>
</g>
<path id="DoorBell" class="st5" d="M391,118v1h-18v-1l2-2v-5.7c0-3.1,2-5.8,5-6.7c0-0.1,0-0.2,0-0.2c0-0.9,0.5-1.7,1.3-2
	c1.4-0.4,2.7,0.6,2.7,1.9c0,0.1,0,0.2,0,0.3c3,0.9,5,3.6,5,6.7v6l2,2 M384.3,120.3c0,1.1-0.9,2-2,2c-1.1,0-2-0.9-2-2"/>
<g id="Presence">
	<path class="st6" d="M167.7,127.6h10.7v-4.3h-7.7l-4.3-6.3c-0.6-1.1-1.8-1.8-3.1-1.8c-0.4,0-0.7,0.1-1.1,0.2l-11.7,3.6v10.7h4.3
		v-7.5l4.2-1.4l-8.4,32.5h3.9l6.2-17l4.9,6.7v10.3h4.3v-13.3l-5.3-9.8l1.6-6.2 M167.8,114.7c2.1,0,3.9-1.7,3.9-3.9s-1.7-3.9-3.9-3.9
		s-3.9,1.7-3.9,3.9S165.7,114.7,167.8,114.7z"/>
	<path class="st6" d="M420.7,356.6h10.7v-4.3h-7.7l-4.3-6.3c-0.6-1.1-1.8-1.8-3.1-1.8c-0.4,0-0.7,0.1-1.1,0.2l-11.7,3.6v10.7h4.3
		v-7.5l4.2-1.4l-8.4,32.5h3.9l6.2-17l4.9,6.7v10.3h4.3v-13.3l-5.3-9.8l1.6-6.2 M420.8,343.7c2.1,0,3.9-1.7,3.9-3.9s-1.7-3.9-3.9-3.9
		s-3.9,1.7-3.9,3.9S418.7,343.7,420.8,343.7z"/>
	<path class="st6" d="M415.7,663.6h10.7v-4.3h-7.7l-4.3-6.3c-0.6-1.1-1.8-1.8-3.1-1.8c-0.4,0-0.7,0.1-1.1,0.2l-11.7,3.6v10.7h4.3
		v-7.5l4.2-1.4l-8.4,32.5h3.9l6.2-17l4.9,6.7v10.3h4.3v-13.3l-5.3-9.8l1.6-6.2 M415.8,650.7c2.1,0,3.9-1.7,3.9-3.9s-1.7-3.9-3.9-3.9
		s-3.9,1.7-3.9,3.9S413.7,650.7,415.8,650.7z"/>
	<path class="st6" d="M323.7,650.6h10.7v-4.3h-7.7l-4.3-6.3c-0.6-1.1-1.8-1.8-3.1-1.8c-0.4,0-0.7,0.1-1.1,0.2l-11.7,3.6v10.7h4.3
		v-7.5l4.2-1.4l-8.4,32.5h3.9l6.2-17l4.9,6.7v10.3h4.3v-13.3l-5.3-9.8l1.6-6.2 M323.8,637.7c2.1,0,3.9-1.7,3.9-3.9s-1.7-3.9-3.9-3.9
		s-3.9,1.7-3.9,3.9S321.7,637.7,323.8,637.7z"/>
	<path class="st7" d="M420.7,64.6h10.7v-4.3h-7.7l-4.3-6.3c-0.6-1.1-1.8-1.8-3.1-1.8c-0.4,0-0.7,0.1-1.1,0.2L403.5,56v10.7h4.3v-7.5
		l4.2-1.4l-8.4,32.5h3.9l6.2-17l4.9,6.7v10.3h4.3V77.1l-5.3-9.8l1.6-6.2 M420.8,51.7c2.1,0,3.9-1.7,3.9-3.9c0-2.1-1.7-3.9-3.9-3.9
		s-3.9,1.7-3.9,3.9C416.9,50,418.7,51.7,420.8,51.7z"/>
	<path class="st6" d="M332.7,86.6h10.7v-4.3h-7.7l-4.3-6.3c-0.6-1.1-1.8-1.8-3.1-1.8c-0.4,0-0.7,0.1-1.1,0.2L315.5,78v10.7h4.3v-7.5
		l4.2-1.4l-8.4,32.5h3.9l6.2-17l4.9,6.7v10.3h4.3V99.1l-5.3-9.8l1.6-6.2 M332.8,73.7c2.1,0,3.9-1.7,3.9-3.9S335,66,332.8,66
		s-3.9,1.7-3.9,3.9S330.7,73.7,332.8,73.7z"/>
	<path class="st6" d="M201.7,368.6h10.7v-4.3h-7.7l-4.3-6.3c-0.6-1.1-1.8-1.8-3.1-1.8c-0.4,0-0.7,0.1-1.1,0.2l-11.7,3.6v10.7h4.3
		v-7.5l4.2-1.4l-8.4,32.5h3.9l6.2-17l4.9,6.7v10.3h4.3v-13.3l-5.3-9.8l1.6-6.2 M201.8,355.7c2.1,0,3.9-1.7,3.9-3.9s-1.7-3.9-3.9-3.9
		s-3.9,1.7-3.9,3.9S199.7,355.7,201.8,355.7z"/>
	<path class="st6" d="M170.7,625.6h10.7v-4.3h-7.7l-4.3-6.3c-0.6-1.1-1.8-1.8-3.1-1.8c-0.4,0-0.7,0.1-1.1,0.2l-11.7,3.6v10.7h4.3
		v-7.5l4.2-1.4l-8.4,32.5h3.9l6.2-17l4.9,6.7v10.3h4.3v-13.3l-5.3-9.8l1.6-6.2 M170.8,612.7c2.1,0,3.9-1.7,3.9-3.9s-1.7-3.9-3.9-3.9
		s-3.9,1.7-3.9,3.9S168.7,612.7,170.8,612.7z"/>
	<path class="st6" d="M659.7,626.6h10.7v-4.3h-7.7l-4.3-6.3c-0.6-1.1-1.8-1.8-3.1-1.8c-0.4,0-0.7,0.1-1.1,0.2l-11.7,3.6v10.7h4.3
		v-7.5l4.2-1.4l-8.4,32.5h3.9l6.2-17l4.9,6.7v10.3h4.3v-13.3l-5.3-9.8l1.6-6.2 M659.2,613.7c2.6,0.4,4.8-1.8,4.4-4.4
		c-0.2-1.6-1.6-3-3.2-3.2c-2.6-0.4-4.8,1.8-4.4,4.4C656.2,612.1,657.6,613.4,659.2,613.7z"/>
	<path class="st6" d="M938.7,627.6h10.7v-4.3h-7.7l-4.3-6.3c-0.6-1.1-1.8-1.8-3.1-1.8c-0.4,0-0.7,0.1-1.1,0.2l-11.7,3.6v10.7h4.3
		v-7.5l4.2-1.4l-8.4,32.5h3.9l6.2-17l4.9,6.7v10.3h4.3v-13.3l-5.3-9.8l1.6-6.2 M938.2,614.7c2.6,0.4,4.8-1.8,4.4-4.4
		c-0.2-1.6-1.6-3-3.2-3.2c-2.6-0.4-4.8,1.8-4.4,4.4C935.2,613.1,936.6,614.4,938.2,614.7z"/>
</g>
<g id="Music">
	<path class="st8" d="M133,80.9l0,31.2c0,2.7-1.7,5.1-4.3,5.8c-4.3,1-8-2.7-7-7c0.5-2.1,2.3-3.8,4.5-4.2c1.3-0.2,2.5,0,3.5,0.5V86.5
		L115.4,90l0,25.3c0,2.7-1.7,5.1-4.3,5.8c-4.3,1-8-2.7-7-7c0.5-2.1,2.3-3.8,4.5-4.2c1.3-0.2,2.5,0,3.5,0.5V85.8L133,80.9z"/>
	<path class="st8" d="M168,315.9l0,31.2c0,2.7-1.7,5.1-4.3,5.8c-4.3,1-8-2.7-7-7c0.5-2.1,2.3-3.8,4.5-4.2c1.3-0.2,2.5,0,3.5,0.5
		v-20.6l-14.3,3.5l0,25.3c0,2.7-1.7,5.1-4.3,5.8c-4.3,1-8-2.7-7-7c0.5-2.1,2.3-3.8,4.5-4.2c1.3-0.2,2.5,0,3.5,0.5v-24.6L168,315.9z"
		/>
</g>
</svg>
