<?xml version="1.0" encoding="utf-8"?>
<!-- Generator: Adobe Illustrator 21.0.2, SVG Export Plug-In . SVG Version: 6.00 Build 0)  -->
<svg version="1.1"
	 id="svg2" inkscape:output_extension="org.inkscape.output.svg.inkscape" inkscape:version="0.46" sodipodi:docname="good-warning-error.svg" sodipodi:version="0.32" xmlns:cc="http://creativecommons.org/ns#" xmlns:dc="http://purl.org/dc/elements/1.1/" xmlns:inkscape="http://www.inkscape.org/namespaces/inkscape" xmlns:rdf="http://www.w3.org/1999/02/22-rdf-syntax-ns#" xmlns:sodipodi="http://sodipodi.sourceforge.net/DTD/sodipodi-0.dtd" xmlns:svg="http://www.w3.org/2000/svg"
	 xmlns="http://www.w3.org/2000/svg" xmlns:xlink="http://www.w3.org/1999/xlink" x="0px" y="0px" viewBox="0 0 34 34.1"
	 style="enable-background:new 0 0 34 34.1;" xml:space="preserve">
<style type="text/css">
	.st0{fill:url(#path3368_1_);stroke:#7B0000;stroke-width:1.6643;}
	.st1{fill:#FFFFFF;}
	.st2{fill:url(#rect3426_1_);stroke:#816907;stroke-width:1.948;stroke-linecap:square;stroke-linejoin:round;}
	.st3{fill:#4E4008;}
	.st4{fill:url(#SVGID_1_);stroke:url(#SVGID_2_);stroke-width:1.944;stroke-linecap:round;stroke-linejoin:round;}
	.st5{fill:#FFFFFF;stroke:#3776E4;stroke-width:0.1;stroke-miterlimit:10;}
</style>
<linearGradient id="SVGID_1_" gradientUnits="userSpaceOnUse" x1="0.3879" y1="7.409" x2="33.6121" y2="26.591">
	<stop  offset="0" style="stop-color:#D8EBFF"/>
	<stop  offset="1" style="stop-color:#4FA9FF"/>
</linearGradient>
<linearGradient id="SVGID_2_" gradientUnits="userSpaceOnUse" x1="1.7039" y1="17" x2="32.296" y2="17">
	<stop  offset="0" style="stop-color:#2B79E0"/>
	<stop  offset="1" style="stop-color:#008DF7"/>
</linearGradient>
<path class="st4" d="M30.3,31.3H3.7c-0.6,0-1.1-0.5-1.1-1.1V3.7c0-0.6,0.5-1.1,1.1-1.1h26.5c0.6,0,1.1,0.5,1.1,1.1v26.5
	C31.3,30.9,30.9,31.3,30.3,31.3z"/>
<g>
	<path id="path3447_1_" class="st5" d="M19.1,27.2l0-13.7l-4.2,0l0,13.7L19.1,27.2z"/>
	
		<path id="path3483_1_" sodipodi:cx="165.91756" sodipodi:cy="745.33893" sodipodi:rx="2.1465743" sodipodi:ry="2.1465743" sodipodi:type="arc" class="st5" d="
		M14.7,9.2c0-1.3,1-2.3,2.3-2.3s2.3,1,2.3,2.3s-1,2.3-2.3,2.3S14.7,10.5,14.7,9.2L14.7,9.2z"/>
</g>
</svg>
