<?xml version="1.0" encoding="utf-8"?>
<!-- Generator: Adobe Illustrator 21.0.2, SVG Export Plug-In . SVG Version: 6.00 Build 0)  -->
<svg version="1.1"
	 id="svg2" inkscape:output_extension="org.inkscape.output.svg.inkscape" inkscape:version="0.46" sodipodi:docname="good-warning-error.svg" sodipodi:version="0.32" xmlns:cc="http://creativecommons.org/ns#" xmlns:dc="http://purl.org/dc/elements/1.1/" xmlns:inkscape="http://www.inkscape.org/namespaces/inkscape" xmlns:rdf="http://www.w3.org/1999/02/22-rdf-syntax-ns#" xmlns:sodipodi="http://sodipodi.sourceforge.net/DTD/sodipodi-0.dtd" xmlns:svg="http://www.w3.org/2000/svg"
	 xmlns="http://www.w3.org/2000/svg" xmlns:xlink="http://www.w3.org/1999/xlink" x="0px" y="0px" viewBox="0 0 34 34"
	 style="enable-background:new 0 0 34 34;" xml:space="preserve">
<style type="text/css">
	.st0{fill:url(#path3368_1_);stroke:#7B0000;stroke-width:1.6643;}
	.st1{fill:#FFFFFF;}
	.st2{fill:url(#rect3426_1_);stroke:#816907;stroke-width:1.948;stroke-linecap:square;stroke-linejoin:round;}
	.st3{fill:#4E4008;}
	.st4{fill:url(#SVGID_1_);stroke:url(#SVGID_2_);stroke-width:1.944;stroke-linecap:round;stroke-linejoin:round;}
	.st5{fill:#FFFFFF;stroke:#3776E4;stroke-width:0.1;stroke-miterlimit:10;}
</style>
<g id="g3534" transform="matrix(0.9012875,0,0,0.9012875,40.039676,74.783044)">
	
		<linearGradient id="path3368_1_" gradientUnits="userSpaceOnUse" x1="88.4541" y1="-903.7274" x2="68.5255" y2="-880.8703" gradientTransform="matrix(0.9013 0 0 -0.9013 -95.2393 -866.9921)">
		<stop  offset="0" style="stop-color:#BB4444"/>
		<stop  offset="1" style="stop-color:#CF6969"/>
	</linearGradient>
	
		<path id="path3368" sodipodi:cx="121.60714" sodipodi:cy="727.18359" sodipodi:rx="15.892858" sodipodi:ry="15.892858" sodipodi:type="arc" class="st0" d="
		M-9.8-64.2c0,8.8-7.1,15.9-15.9,15.9s-15.9-7.1-15.9-15.9s7.1-15.9,15.9-15.9S-9.8-73-9.8-64.2L-9.8-64.2z"/>
	<path id="rect3386" class="st1" d="M-19.7-73.5l-6,6l-6-6l-3.2,3.3l6,6l-6,6l3.2,3.3l6-6l6,6l3.3-3.3l-6-6l6-6L-19.7-73.5z"/>
</g>
</svg>
